# xmcd
# 
# Track frame offsets:
#     150
#     18850
#     34935
#     54095
#     71380
#     89890
#     103855
#     124250
#     142340
#     158125
#     180225
#     205390
# 
# Disc length: 2994
# 
# Revision: 1
# Processed by: cddbd v1.5.2PL0 Copyright (c) Steve Scherf et al.
# Submitted via: fre:ac v1.0.31
# 
DISCID=a80bb00c
DTITLE=ナノ - Rock on
DYEAR=2015
DGENRE=Anime
TTITLE0=identity crisis
TTITLE1=Born to be
TTITLE2=JUMP START
TTITLE3=SABLE
TTITLE4=SAVIOR OF SONG
TTITLE5=Scarlet Story
TTITLE6=Be the one
TTITLE7=INFINITY≠ZERO
TTITLE8=RESTART
TTITLE9=One Life
TTITLE10=Small and Significant
TTITLE11=Rock on.
EXTD=
EXTT0=
EXTT1=
EXTT2=
EXTT3=
EXTT4=
EXTT5=
EXTT6=
EXTT7=
EXTT8=
EXTT9=
EXTT10=
EXTT11=
PLAYORDER=
